%TF.GenerationSoftware,KiCad,Pcbnew,(6.0.8)*%
%TF.CreationDate,2023-07-04T13:31:15+01:00*%
%TF.ProjectId,DC_Divider_ATX_Unit,44435f44-6976-4696-9465-725f4154585f,rev?*%
%TF.SameCoordinates,Original*%
%TF.FileFunction,Copper,L1,Top*%
%TF.FilePolarity,Positive*%
%FSLAX46Y46*%
G04 Gerber Fmt 4.6, Leading zero omitted, Abs format (unit mm)*
G04 Created by KiCad (PCBNEW (6.0.8)) date 2023-07-04 13:31:15*
%MOMM*%
%LPD*%
G01*
G04 APERTURE LIST*
G04 Aperture macros list*
%AMRoundRect*
0 Rectangle with rounded corners*
0 $1 Rounding radius*
0 $2 $3 $4 $5 $6 $7 $8 $9 X,Y pos of 4 corners*
0 Add a 4 corners polygon primitive as box body*
4,1,4,$2,$3,$4,$5,$6,$7,$8,$9,$2,$3,0*
0 Add four circle primitives for the rounded corners*
1,1,$1+$1,$2,$3*
1,1,$1+$1,$4,$5*
1,1,$1+$1,$6,$7*
1,1,$1+$1,$8,$9*
0 Add four rect primitives between the rounded corners*
20,1,$1+$1,$2,$3,$4,$5,0*
20,1,$1+$1,$4,$5,$6,$7,0*
20,1,$1+$1,$6,$7,$8,$9,0*
20,1,$1+$1,$8,$9,$2,$3,0*%
G04 Aperture macros list end*
%TA.AperFunction,ComponentPad*%
%ADD10C,2.780000*%
%TD*%
%TA.AperFunction,ComponentPad*%
%ADD11RoundRect,0.249999X-0.790001X-1.550001X0.790001X-1.550001X0.790001X1.550001X-0.790001X1.550001X0*%
%TD*%
%TA.AperFunction,ComponentPad*%
%ADD12O,2.080000X3.600000*%
%TD*%
%TA.AperFunction,ComponentPad*%
%ADD13O,2.700000X3.700000*%
%TD*%
%TA.AperFunction,ComponentPad*%
%ADD14RoundRect,0.250001X-1.099999X-1.599999X1.099999X-1.599999X1.099999X1.599999X-1.099999X1.599999X0*%
%TD*%
%TA.AperFunction,ComponentPad*%
%ADD15C,2.540000*%
%TD*%
%TA.AperFunction,ComponentPad*%
%ADD16R,2.540000X2.540000*%
%TD*%
G04 APERTURE END LIST*
D10*
%TO.P,F3,1*%
%TO.N,+5V*%
X150227000Y-135044875D03*
X153627000Y-135044875D03*
%TO.P,F3,2*%
%TO.N,Net-(J4-Pad1)*%
X153627000Y-144964875D03*
X150227000Y-144964875D03*
%TD*%
%TO.P,F2,2*%
%TO.N,Net-(J3-Pad1)*%
X130507000Y-144964875D03*
X133907000Y-144964875D03*
%TO.P,F2,1*%
%TO.N,+9V*%
X133907000Y-135044875D03*
X130507000Y-135044875D03*
%TD*%
%TO.P,F1,1*%
%TO.N,+12V*%
X110787000Y-135044875D03*
X114187000Y-135044875D03*
%TO.P,F1,2*%
%TO.N,Net-(J2-Pad1)*%
X114187000Y-144964875D03*
X110787000Y-144964875D03*
%TD*%
D11*
%TO.P,J4,1,Pin_1*%
%TO.N,Net-(J4-Pad1)*%
X149387000Y-152813500D03*
D12*
%TO.P,J4,2,Pin_2*%
%TO.N,GND*%
X154467000Y-152813500D03*
%TD*%
D11*
%TO.P,J3,1,Pin_1*%
%TO.N,Net-(J3-Pad1)*%
X129667000Y-152813500D03*
D12*
%TO.P,J3,2,Pin_2*%
%TO.N,GND*%
X134747000Y-152813500D03*
%TD*%
D13*
%TO.P,J1,24,GND*%
%TO.N,GND*%
X155369200Y-104534600D03*
%TO.P,J1,23,+5V*%
%TO.N,+5V*%
X151169200Y-104534600D03*
%TO.P,J1,22,+5V*%
X146969200Y-104534600D03*
%TO.P,J1,21,+5V*%
X142769200Y-104534600D03*
%TO.P,J1,20,NC*%
%TO.N,unconnected-(J1-Pad20)*%
X138569200Y-104534600D03*
%TO.P,J1,19,GND*%
%TO.N,GND*%
X134369200Y-104534600D03*
%TO.P,J1,18,GND*%
X130169200Y-104534600D03*
%TO.P,J1,17,GND*%
X125969200Y-104534600D03*
%TO.P,J1,16,PS_ON#*%
X121769200Y-104534600D03*
%TO.P,J1,15,GND*%
X117569200Y-104534600D03*
%TO.P,J1,14,-12V*%
%TO.N,unconnected-(J1-Pad14)*%
X113369200Y-104534600D03*
%TO.P,J1,13,+3.3V*%
%TO.N,unconnected-(J1-Pad1)*%
X109169200Y-104534600D03*
%TO.P,J1,12,+3.3V*%
X155369200Y-99034600D03*
%TO.P,J1,11,+12V*%
%TO.N,+12V*%
X151169200Y-99034600D03*
%TO.P,J1,10,+12V*%
X146969200Y-99034600D03*
%TO.P,J1,9,+5VSB*%
%TO.N,unconnected-(J1-Pad9)*%
X142769200Y-99034600D03*
%TO.P,J1,8,PWR_OK*%
%TO.N,unconnected-(J1-Pad8)*%
X138569200Y-99034600D03*
%TO.P,J1,7,GND*%
%TO.N,GND*%
X134369200Y-99034600D03*
%TO.P,J1,6,+5V*%
%TO.N,+5V*%
X130169200Y-99034600D03*
%TO.P,J1,5,GND*%
%TO.N,GND*%
X125969200Y-99034600D03*
%TO.P,J1,4,+5V*%
%TO.N,+5V*%
X121769200Y-99034600D03*
%TO.P,J1,3,GND*%
%TO.N,GND*%
X117569200Y-99034600D03*
%TO.P,J1,2,+3.3V*%
%TO.N,unconnected-(J1-Pad1)*%
X113369200Y-99034600D03*
D14*
%TO.P,J1,1,+3.3V*%
X109169200Y-99034600D03*
%TD*%
D15*
%TO.P,U1,4,Vout*%
%TO.N,+9V*%
X152589200Y-110101250D03*
%TO.P,U1,3,GND*%
%TO.N,GND*%
X152589200Y-127881250D03*
%TO.P,U1,2,GND*%
X111949200Y-127881250D03*
D16*
%TO.P,U1,1,Vin*%
%TO.N,+12V*%
X111949200Y-110101250D03*
%TD*%
D11*
%TO.P,J2,1,Pin_1*%
%TO.N,Net-(J2-Pad1)*%
X109947000Y-152813500D03*
D12*
%TO.P,J2,2,Pin_2*%
%TO.N,GND*%
X115027000Y-152813500D03*
%TD*%
M02*
