%TF.GenerationSoftware,KiCad,Pcbnew,(6.0.8)*%
%TF.CreationDate,2023-07-04T13:31:15+01:00*%
%TF.ProjectId,DC_Divider_ATX_Unit,44435f44-6976-4696-9465-725f4154585f,rev?*%
%TF.SameCoordinates,Original*%
%TF.FileFunction,Legend,Bot*%
%TF.FilePolarity,Positive*%
%FSLAX46Y46*%
G04 Gerber Fmt 4.6, Leading zero omitted, Abs format (unit mm)*
G04 Created by KiCad (PCBNEW (6.0.8)) date 2023-07-04 13:31:15*
%MOMM*%
%LPD*%
G01*
G04 APERTURE LIST*
%ADD10C,0.450000*%
%ADD11C,0.300000*%
G04 APERTURE END LIST*
D10*
X114344142Y-161097742D02*
X116058428Y-161097742D01*
X115201285Y-161097742D02*
X115201285Y-158097742D01*
X115487000Y-158526314D01*
X115772714Y-158812028D01*
X116058428Y-158954885D01*
X113201285Y-158383457D02*
X113058428Y-158240600D01*
X112772714Y-158097742D01*
X112058428Y-158097742D01*
X111772714Y-158240600D01*
X111629857Y-158383457D01*
X111487000Y-158669171D01*
X111487000Y-158954885D01*
X111629857Y-159383457D01*
X113344142Y-161097742D01*
X111487000Y-161097742D01*
X110629857Y-158097742D02*
X109629857Y-161097742D01*
X108629857Y-158097742D01*
D11*
X145711771Y-113848761D02*
X145711771Y-111848761D01*
X145235580Y-111848761D01*
X144949866Y-111944000D01*
X144759390Y-112134476D01*
X144664152Y-112324952D01*
X144568914Y-112705904D01*
X144568914Y-112991619D01*
X144664152Y-113372571D01*
X144759390Y-113563047D01*
X144949866Y-113753523D01*
X145235580Y-113848761D01*
X145711771Y-113848761D01*
X142568914Y-113658285D02*
X142664152Y-113753523D01*
X142949866Y-113848761D01*
X143140342Y-113848761D01*
X143426057Y-113753523D01*
X143616533Y-113563047D01*
X143711771Y-113372571D01*
X143807009Y-112991619D01*
X143807009Y-112705904D01*
X143711771Y-112324952D01*
X143616533Y-112134476D01*
X143426057Y-111944000D01*
X143140342Y-111848761D01*
X142949866Y-111848761D01*
X142664152Y-111944000D01*
X142568914Y-112039238D01*
X140187961Y-113848761D02*
X140187961Y-111848761D01*
X139711771Y-111848761D01*
X139426057Y-111944000D01*
X139235580Y-112134476D01*
X139140342Y-112324952D01*
X139045104Y-112705904D01*
X139045104Y-112991619D01*
X139140342Y-113372571D01*
X139235580Y-113563047D01*
X139426057Y-113753523D01*
X139711771Y-113848761D01*
X140187961Y-113848761D01*
X138187961Y-113848761D02*
X138187961Y-112515428D01*
X138187961Y-111848761D02*
X138283200Y-111944000D01*
X138187961Y-112039238D01*
X138092723Y-111944000D01*
X138187961Y-111848761D01*
X138187961Y-112039238D01*
X137426057Y-112515428D02*
X136949866Y-113848761D01*
X136473676Y-112515428D01*
X135711771Y-113848761D02*
X135711771Y-112515428D01*
X135711771Y-111848761D02*
X135807009Y-111944000D01*
X135711771Y-112039238D01*
X135616533Y-111944000D01*
X135711771Y-111848761D01*
X135711771Y-112039238D01*
X133902247Y-113848761D02*
X133902247Y-111848761D01*
X133902247Y-113753523D02*
X134092723Y-113848761D01*
X134473676Y-113848761D01*
X134664152Y-113753523D01*
X134759390Y-113658285D01*
X134854628Y-113467809D01*
X134854628Y-112896380D01*
X134759390Y-112705904D01*
X134664152Y-112610666D01*
X134473676Y-112515428D01*
X134092723Y-112515428D01*
X133902247Y-112610666D01*
X132187961Y-113753523D02*
X132378438Y-113848761D01*
X132759390Y-113848761D01*
X132949866Y-113753523D01*
X133045104Y-113563047D01*
X133045104Y-112801142D01*
X132949866Y-112610666D01*
X132759390Y-112515428D01*
X132378438Y-112515428D01*
X132187961Y-112610666D01*
X132092723Y-112801142D01*
X132092723Y-112991619D01*
X133045104Y-113182095D01*
X131235580Y-113848761D02*
X131235580Y-112515428D01*
X131235580Y-112896380D02*
X131140342Y-112705904D01*
X131045104Y-112610666D01*
X130854628Y-112515428D01*
X130664152Y-112515428D01*
X128473676Y-113848761D02*
X128473676Y-111848761D01*
X127711771Y-111848761D01*
X127521295Y-111944000D01*
X127426057Y-112039238D01*
X127330819Y-112229714D01*
X127330819Y-112515428D01*
X127426057Y-112705904D01*
X127521295Y-112801142D01*
X127711771Y-112896380D01*
X128473676Y-112896380D01*
X126473676Y-113848761D02*
X126473676Y-112515428D01*
X126473676Y-112896380D02*
X126378438Y-112705904D01*
X126283200Y-112610666D01*
X126092723Y-112515428D01*
X125902247Y-112515428D01*
X124949866Y-113848761D02*
X125140342Y-113753523D01*
X125235580Y-113658285D01*
X125330819Y-113467809D01*
X125330819Y-112896380D01*
X125235580Y-112705904D01*
X125140342Y-112610666D01*
X124949866Y-112515428D01*
X124664152Y-112515428D01*
X124473676Y-112610666D01*
X124378438Y-112705904D01*
X124283200Y-112896380D01*
X124283200Y-113467809D01*
X124378438Y-113658285D01*
X124473676Y-113753523D01*
X124664152Y-113848761D01*
X124949866Y-113848761D01*
X123426057Y-112515428D02*
X123426057Y-114229714D01*
X123521295Y-114420190D01*
X123711771Y-114515428D01*
X123807009Y-114515428D01*
X123426057Y-111848761D02*
X123521295Y-111944000D01*
X123426057Y-112039238D01*
X123330819Y-111944000D01*
X123426057Y-111848761D01*
X123426057Y-112039238D01*
X121711771Y-113753523D02*
X121902247Y-113848761D01*
X122283200Y-113848761D01*
X122473676Y-113753523D01*
X122568914Y-113563047D01*
X122568914Y-112801142D01*
X122473676Y-112610666D01*
X122283200Y-112515428D01*
X121902247Y-112515428D01*
X121711771Y-112610666D01*
X121616533Y-112801142D01*
X121616533Y-112991619D01*
X122568914Y-113182095D01*
X119902247Y-113753523D02*
X120092723Y-113848761D01*
X120473676Y-113848761D01*
X120664152Y-113753523D01*
X120759390Y-113658285D01*
X120854628Y-113467809D01*
X120854628Y-112896380D01*
X120759390Y-112705904D01*
X120664152Y-112610666D01*
X120473676Y-112515428D01*
X120092723Y-112515428D01*
X119902247Y-112610666D01*
X119330819Y-112515428D02*
X118568914Y-112515428D01*
X119045104Y-111848761D02*
X119045104Y-113563047D01*
X118949866Y-113753523D01*
X118759390Y-113848761D01*
X118568914Y-113848761D01*
X138235580Y-116497333D02*
X137283200Y-116497333D01*
X138426057Y-117068761D02*
X137759390Y-115068761D01*
X137092723Y-117068761D01*
X136711771Y-115068761D02*
X135568914Y-115068761D01*
X136140342Y-117068761D02*
X136140342Y-115068761D01*
X135092723Y-115068761D02*
X133759390Y-117068761D01*
X133759390Y-115068761D02*
X135092723Y-117068761D01*
X131473676Y-115068761D02*
X131473676Y-116687809D01*
X131378438Y-116878285D01*
X131283200Y-116973523D01*
X131092723Y-117068761D01*
X130711771Y-117068761D01*
X130521295Y-116973523D01*
X130426057Y-116878285D01*
X130330819Y-116687809D01*
X130330819Y-115068761D01*
X129378438Y-115735428D02*
X129378438Y-117068761D01*
X129378438Y-115925904D02*
X129283200Y-115830666D01*
X129092723Y-115735428D01*
X128807009Y-115735428D01*
X128616533Y-115830666D01*
X128521295Y-116021142D01*
X128521295Y-117068761D01*
X127568914Y-117068761D02*
X127568914Y-115735428D01*
X127568914Y-115068761D02*
X127664152Y-115164000D01*
X127568914Y-115259238D01*
X127473676Y-115164000D01*
X127568914Y-115068761D01*
X127568914Y-115259238D01*
X126902247Y-115735428D02*
X126140342Y-115735428D01*
X126616533Y-115068761D02*
X126616533Y-116783047D01*
X126521295Y-116973523D01*
X126330819Y-117068761D01*
X126140342Y-117068761D01*
D10*
X152498428Y-158097742D02*
X153927000Y-158097742D01*
X154069857Y-159526314D01*
X153927000Y-159383457D01*
X153641285Y-159240600D01*
X152927000Y-159240600D01*
X152641285Y-159383457D01*
X152498428Y-159526314D01*
X152355571Y-159812028D01*
X152355571Y-160526314D01*
X152498428Y-160812028D01*
X152641285Y-160954885D01*
X152927000Y-161097742D01*
X153641285Y-161097742D01*
X153927000Y-160954885D01*
X154069857Y-160812028D01*
X151498428Y-158097742D02*
X150498428Y-161097742D01*
X149498428Y-158097742D01*
X140269200Y-92234600D02*
X138840628Y-92234600D01*
X140554914Y-93091742D02*
X139554914Y-90091742D01*
X138554914Y-93091742D01*
X137983485Y-90091742D02*
X136269200Y-90091742D01*
X137126342Y-93091742D02*
X137126342Y-90091742D01*
X135554914Y-90091742D02*
X133554914Y-93091742D01*
X133554914Y-90091742D02*
X135554914Y-93091742D01*
X132412057Y-91948885D02*
X130126342Y-91948885D01*
X128840628Y-90377457D02*
X128697771Y-90234600D01*
X128412057Y-90091742D01*
X127697771Y-90091742D01*
X127412057Y-90234600D01*
X127269200Y-90377457D01*
X127126342Y-90663171D01*
X127126342Y-90948885D01*
X127269200Y-91377457D01*
X128983485Y-93091742D01*
X127126342Y-93091742D01*
X124554914Y-91091742D02*
X124554914Y-93091742D01*
X125269200Y-89948885D02*
X125983485Y-92091742D01*
X124126342Y-92091742D01*
X134064142Y-161097742D02*
X133492714Y-161097742D01*
X133207000Y-160954885D01*
X133064142Y-160812028D01*
X132778428Y-160383457D01*
X132635571Y-159812028D01*
X132635571Y-158669171D01*
X132778428Y-158383457D01*
X132921285Y-158240600D01*
X133207000Y-158097742D01*
X133778428Y-158097742D01*
X134064142Y-158240600D01*
X134207000Y-158383457D01*
X134349857Y-158669171D01*
X134349857Y-159383457D01*
X134207000Y-159669171D01*
X134064142Y-159812028D01*
X133778428Y-159954885D01*
X133207000Y-159954885D01*
X132921285Y-159812028D01*
X132778428Y-159669171D01*
X132635571Y-159383457D01*
X131778428Y-158097742D02*
X130778428Y-161097742D01*
X129778428Y-158097742D01*
M02*
