M48
; DRILL file {KiCad (6.0.8)} date Tue Jul  4 13:31:11 2023
; FORMAT={-:-/ absolute / inch / decimal}
; #@! TF.CreationDate,2023-07-04T13:31:11+01:00
; #@! TF.GenerationSoftware,Kicad,Pcbnew,(6.0.8)
; #@! TF.FileFunction,Plated,1,2,PTH
FMAT,2
INCH
; #@! TA.AperFunction,Plated,PTH,ComponentDrill
T1C0.0394
; #@! TA.AperFunction,Plated,PTH,ComponentDrill
T2C0.0551
; #@! TA.AperFunction,Plated,PTH,ComponentDrill
T3C0.0701
; #@! TA.AperFunction,Plated,PTH,ComponentDrill
T4C0.0709
%
G90
G05
T1
X4.4074Y-4.3347
X4.4074Y-5.0347
X6.0074Y-4.3347
X6.0074Y-5.0347
T2
X4.3286Y-6.0163
X4.5286Y-6.0163
X5.105Y-6.0163
X5.305Y-6.0163
X5.8814Y-6.0163
X6.0814Y-6.0163
T3
X4.3617Y-5.3167
X4.3617Y-5.7073
X4.4956Y-5.3167
X4.4956Y-5.7073
X5.1381Y-5.3167
X5.1381Y-5.7073
X5.2719Y-5.3167
X5.2719Y-5.7073
X5.9144Y-5.3167
X5.9144Y-5.7073
X6.0483Y-5.3167
X6.0483Y-5.7073
T4
X4.298Y-3.899
X4.298Y-4.1155
X4.4634Y-3.899
X4.4634Y-4.1155
X4.6287Y-3.899
X4.6287Y-4.1155
X4.7941Y-3.899
X4.7941Y-4.1155
X4.9594Y-3.899
X4.9594Y-4.1155
X5.1248Y-3.899
X5.1248Y-4.1155
X5.2901Y-3.899
X5.2901Y-4.1155
X5.4555Y-3.899
X5.4555Y-4.1155
X5.6208Y-3.899
X5.6208Y-4.1155
X5.7862Y-3.899
X5.7862Y-4.1155
X5.9515Y-3.899
X5.9515Y-4.1155
X6.1169Y-3.899
X6.1169Y-4.1155
T0
M30
